<svg width="32" height="32" fill="none" xmlns="http://www.w3.org/2000/svg"><g clip-path="url(#clip0_1753_5895)" fill="#373E46"><path d="M24.64 9.486l-11.671 11.67-5.61-5.609-.905.905 6.515 6.515L25.545 10.39l-.905-.905z"/><path d="M16 0C7.177 0 0 7.177 0 16s7.177 16 16 16 16-7.177 16-16S24.823 0 16 0zm0 30.72C7.883 30.72 1.28 24.117 1.28 16S7.883 1.28 16 1.28 30.72 7.883 30.72 16 24.117 30.72 16 30.72z"/></g><defs><clipPath id="clip0_1753_5895"><path fill="#fff" d="M0 0h32v32H0z"/></clipPath></defs></svg>