<svg width="32" height="32" fill="none" xmlns="http://www.w3.org/2000/svg"><path d="M29.82 20.871c-1.625-1.306-3.116-1.941-4.558-1.941-2.086 0-3.588 1.327-4.948 2.686-.156.156-.346.23-.596.23-1.145 0-3.161-1.436-5.99-4.265-3.33-3.33-4.588-5.447-3.742-6.294 2.294-2.293 3.01-4.593-.502-8.961C8.226.76 6.996 0 5.722 0 4.005 0 2.7 1.373 1.548 2.584c-.2.21-.388.407-.572.592-1.302 1.301-1.301 4.14.002 7.595 1.43 3.79 4.252 7.914 7.949 11.61 2.858 2.859 5.968 5.169 8.994 6.72 2.642 1.354 5.204 2.08 7.215 2.08 1.26 0 2.282-.275 2.957-.834 1.371-1.133 3.924-3.234 3.907-5.728-.01-1.338-.743-2.592-2.18-3.748z" fill="#fff"/></svg>