<svg width="27" height="27" fill="none" xmlns="http://www.w3.org/2000/svg"><path d="M.005 26.667l1.803-6.624A13.272 13.272 0 010 13.333C0 5.97 5.97 0 13.333 0c7.364 0 13.334 5.97 13.334 13.333 0 7.364-5.97 13.334-13.334 13.334a13.272 13.272 0 01-6.706-1.807L.005 26.667zm8.516-19.59c-.172.011-.34.056-.494.134a1.724 1.724 0 00-.392.304c-.16.15-.251.281-.348.408a3.639 3.639 0 00-.754 2.237c.003.653.174 1.29.44 1.884.546 1.203 1.443 2.476 2.628 3.656.286.284.564.57.864.835a12.596 12.596 0 005.12 2.728l.759.116c.247.013.493-.006.741-.018.389-.02.768-.125 1.111-.308.221-.117.325-.176.51-.293 0 0 .058-.037.167-.12.18-.133.291-.228.44-.384.111-.115.207-.25.28-.403.104-.217.208-.632.251-.977.032-.264.023-.408.019-.497-.006-.143-.124-.291-.254-.354l-.776-.348s-1.16-.505-1.868-.828a.665.665 0 00-.236-.054.643.643 0 00-.504.169v-.003c-.006 0-.096.076-1.06 1.244a.466.466 0 01-.49.174 1.906 1.906 0 01-.255-.088c-.165-.07-.223-.096-.336-.146l-.007-.002a8.014 8.014 0 01-2.093-1.334c-.168-.146-.324-.306-.484-.461a8.397 8.397 0 01-1.36-1.69l-.079-.127a1.227 1.227 0 01-.136-.274.427.427 0 01.082-.353s.324-.355.474-.547a5.71 5.71 0 00.351-.497c.157-.253.207-.513.124-.715-.373-.912-.76-1.82-1.157-2.721-.079-.179-.312-.307-.524-.332a5.911 5.911 0 00-.216-.021 4.512 4.512 0 00-.538.005v.001z" fill="#fff"/></svg>